<mxfile host="app.diagrams.net" agent="Mozilla/5.0 (Windows NT 10.0; Win64; x64) AppleWebKit/537.36 (KHTML, like Gecko) Chrome/128.0.0.0 Safari/537.36 OPR/114.0.0.0" version="24.8.4">
  <diagram name="Sayfa -1" id="XzUaB_-AtDhHAuHPYO1C">
    <mxGraphModel dx="2033" dy="1112" grid="1" gridSize="10" guides="1" tooltips="1" connect="1" arrows="1" fold="1" page="1" pageScale="1" pageWidth="1600" pageHeight="1200" math="0" shadow="0">
      <root>
        <mxCell id="0" />
        <mxCell id="1" parent="0" />
        <mxCell id="8szuI--EkzhrG53r30mL-1" value="&lt;p style=&quot;margin:0px;margin-top:4px;text-align:center;&quot;&gt;&lt;b&gt;Student&lt;/b&gt;&lt;/p&gt;&lt;hr size=&quot;1&quot; style=&quot;border-style:solid;&quot;&gt;&lt;p style=&quot;margin: 0px 0px 0px 4px;&quot;&gt;&lt;span style=&quot;background-color: initial;&quot;&gt;-&amp;nbsp;advisor: Advisor&lt;/span&gt;&lt;br&gt;&lt;/p&gt;&lt;p style=&quot;margin: 0px 0px 0px 4px;&quot;&gt;- year: int&lt;span style=&quot;background-color: initial;&quot;&gt;&lt;br&gt;&lt;/span&gt;&lt;/p&gt;&lt;p style=&quot;margin: 0px 0px 0px 4px;&quot;&gt;- enrolledCourses: List&amp;lt;CourseSection&amp;gt;&lt;/p&gt;&lt;p style=&quot;margin: 0px 0px 0px 4px;&quot;&gt;- successedCourses: List&amp;lt;Course&amp;gt;&lt;/p&gt;&lt;p style=&quot;margin: 0px 0px 0px 4px;&quot;&gt;&lt;br&gt;&lt;/p&gt;&lt;p style=&quot;margin:0px;margin-left:4px;&quot;&gt;&lt;br&gt;&lt;/p&gt;&lt;hr size=&quot;1&quot; style=&quot;border-style:solid;&quot;&gt;&lt;p style=&quot;margin: 0px 0px 0px 4px;&quot;&gt;&lt;span style=&quot;background-color: initial;&quot;&gt;+ viewCourses(): List&amp;lt;Course&amp;gt;&lt;/span&gt;&lt;br&gt;&lt;/p&gt;&lt;p style=&quot;margin: 0px 0px 0px 4px;&quot;&gt;+ viewSchedule(): String&lt;/p&gt;" style="verticalAlign=top;align=left;overflow=fill;html=1;whiteSpace=wrap;" vertex="1" parent="1">
          <mxGeometry x="80" y="400" width="240" height="320" as="geometry" />
        </mxCell>
        <mxCell id="8szuI--EkzhrG53r30mL-2" value="&lt;p style=&quot;margin:0px;margin-top:4px;text-align:center;&quot;&gt;&lt;i&gt;&amp;lt;&amp;lt;&lt;b&gt;Person&lt;/b&gt;&amp;gt;&amp;gt;&lt;/i&gt;&lt;br&gt;&lt;/p&gt;&lt;hr size=&quot;1&quot; style=&quot;border-style:solid;&quot;&gt;&lt;p style=&quot;margin:0px;margin-left:4px;&quot;&gt;- personID: ID&lt;/p&gt;&lt;p style=&quot;margin:0px;margin-left:4px;&quot;&gt;- password: Password&lt;br&gt;- firstName: String&lt;/p&gt;&lt;p style=&quot;margin:0px;margin-left:4px;&quot;&gt;- secondName: String&lt;/p&gt;&lt;p style=&quot;margin:0px;margin-left:4px;&quot;&gt;+ courseRegistrationSystem: CourseRegistrationSystem&lt;br&gt;&lt;/p&gt;&lt;p style=&quot;margin:0px;margin-left:4px;&quot;&gt;&lt;br&gt;&lt;/p&gt;&lt;hr size=&quot;1&quot; style=&quot;border-style:solid;&quot;&gt;&lt;p style=&quot;margin: 0px 0px 0px 4px;&quot;&gt;+ Person(personID: ID, password: Password, firstName: String, secondName: String, courseRegistrationSystem: CourseRegistrationSystem)&lt;br&gt;&lt;/p&gt;&lt;p style=&quot;margin: 0px 0px 0px 4px;&quot;&gt;+&amp;nbsp;&lt;span style=&quot;background-color: initial;&quot;&gt;&amp;lt;&amp;lt;&lt;/span&gt;&lt;span style=&quot;background-color: initial;&quot; class=&quot;hljs-keyword&quot;&gt;abstract&lt;/span&gt;&lt;span style=&quot;background-color: initial;&quot;&gt;&amp;gt;&amp;gt;&amp;nbsp;&lt;/span&gt;&lt;span style=&quot;background-color: initial;&quot;&gt;login(personID: String, password: Password): boolean&lt;/span&gt;&lt;/p&gt;&lt;p style=&quot;margin: 0px 0px 0px 4px;&quot;&gt;&lt;span style=&quot;background-color: initial;&quot;&gt;+&amp;nbsp;&lt;/span&gt;&lt;span style=&quot;background-color: initial;&quot;&gt;&amp;lt;&amp;lt;&lt;/span&gt;&lt;span style=&quot;background-color: initial;&quot; class=&quot;hljs-keyword&quot;&gt;abstract&lt;/span&gt;&lt;span style=&quot;background-color: initial;&quot;&gt;&amp;gt;&amp;gt;&amp;nbsp;&lt;/span&gt;&lt;span style=&quot;background-color: initial;&quot;&gt;logout(): void&amp;nbsp;&lt;/span&gt;&lt;/p&gt;" style="verticalAlign=top;align=left;overflow=fill;html=1;whiteSpace=wrap;" vertex="1" parent="1">
          <mxGeometry x="200" y="40" width="400" height="240" as="geometry" />
        </mxCell>
        <mxCell id="8szuI--EkzhrG53r30mL-3" value="&lt;p style=&quot;margin:0px;margin-top:4px;text-align:center;&quot;&gt;&lt;b&gt;Advisor&lt;/b&gt;&lt;/p&gt;&lt;hr size=&quot;1&quot; style=&quot;border-style:solid;&quot;&gt;&lt;p style=&quot;margin:0px;margin-left:4px;&quot;&gt;- assignedStudents: List&amp;lt;Student&amp;gt;&lt;br&gt;&lt;/p&gt;&lt;p style=&quot;margin:0px;margin-left:4px;&quot;&gt;- awaitingStudents: List&amp;lt;Student&amp;gt;&lt;/p&gt;&lt;p style=&quot;margin:0px;margin-left:4px;&quot;&gt;&lt;br&gt;&lt;/p&gt;&lt;p style=&quot;margin:0px;margin-left:4px;&quot;&gt;&lt;br&gt;&lt;/p&gt;&lt;hr size=&quot;1&quot; style=&quot;border-style:solid;&quot;&gt;&lt;p style=&quot;margin:0px;margin-left:4px;&quot;&gt;&lt;span style=&quot;background-color: initial;&quot;&gt;+ viewAssignedStudents(): List&amp;lt;Student&amp;gt;&lt;/span&gt;&lt;br&gt;&lt;/p&gt;&lt;p style=&quot;margin:0px;margin-left:4px;&quot;&gt;+ viewAwaitingStudents(): List&amp;lt;Student&amp;gt;&lt;br&gt;&lt;/p&gt;" style="verticalAlign=top;align=left;overflow=fill;html=1;whiteSpace=wrap;" vertex="1" parent="1">
          <mxGeometry x="480" y="400" width="240" height="240" as="geometry" />
        </mxCell>
        <mxCell id="8szuI--EkzhrG53r30mL-4" style="edgeStyle=orthogonalEdgeStyle;rounded=0;orthogonalLoop=1;jettySize=auto;html=1;exitX=0.5;exitY=1;exitDx=0;exitDy=0;" edge="1" parent="1" source="8szuI--EkzhrG53r30mL-2" target="8szuI--EkzhrG53r30mL-2">
          <mxGeometry relative="1" as="geometry" />
        </mxCell>
        <mxCell id="8szuI--EkzhrG53r30mL-5" value="&lt;p style=&quot;margin:0px;margin-top:4px;text-align:center;&quot;&gt;&amp;lt;&amp;lt;singleton&amp;gt;&amp;gt;&lt;b&gt;&lt;br&gt;&lt;/b&gt;&lt;/p&gt;&lt;p style=&quot;margin:0px;margin-top:4px;text-align:center;&quot;&gt;&lt;b&gt;Course Registration System&lt;/b&gt;&lt;/p&gt;&lt;hr size=&quot;1&quot; style=&quot;border-style:solid;&quot;&gt;&lt;p style=&quot;margin:0px;margin-left:4px;&quot;&gt;- instance: CourseRegistrationSystem [static]&lt;br&gt;&lt;/p&gt;&lt;p style=&quot;margin:0px;margin-left:4px;&quot;&gt;- students: List&amp;lt;Student&amp;gt;&lt;/p&gt;&lt;p style=&quot;margin:0px;margin-left:4px;&quot;&gt;- advisors: List&amp;lt;Advisor&amp;gt;&amp;nbsp;&lt;/p&gt;&lt;p style=&quot;margin:0px;margin-left:4px;&quot;&gt;- courses: List&amp;lt;Course&amp;gt;&lt;/p&gt;&lt;p style=&quot;margin:0px;margin-left:4px;&quot;&gt;- courseSections: List&amp;lt;CourseSection&amp;gt;&amp;nbsp;&lt;/p&gt;&lt;p style=&quot;margin:0px;margin-left:4px;&quot;&gt;- currentRole: String&lt;/p&gt;&lt;p style=&quot;margin:0px;margin-left:4px;&quot;&gt;&lt;br&gt;&lt;/p&gt;&lt;hr size=&quot;1&quot; style=&quot;border-style:solid;&quot;&gt;&lt;p style=&quot;margin:0px;margin-left:4px;&quot;&gt;+ getInstance(): CourseRegistrationSystem [static]&lt;span style=&quot;background-color: initial;&quot;&gt;&lt;br&gt;&lt;/span&gt;&lt;/p&gt;&lt;p style=&quot;margin:0px;margin-left:4px;&quot;&gt;&lt;span style=&quot;background-color: initial;&quot;&gt;+ validatePrerequisites(student: Student, courseSection: CourseSection): boolean&lt;/span&gt;&lt;/p&gt;&lt;p style=&quot;margin:0px;margin-left:4px;&quot;&gt;+ enrollCourse(student: Student, courseSection: CourseSection): void&lt;span style=&quot;background-color: initial;&quot;&gt;&lt;/span&gt;&lt;/p&gt;&lt;p style=&quot;margin:0px;margin-left:4px;&quot;&gt;+&amp;nbsp;dropCourse(student: Student, courseSection: CourseSection): void&lt;/p&gt;&lt;p style=&quot;margin: 0px 0px 0px 4px;&quot;&gt;+ assignStudentToAdvisor(student: Student, advisor: Advisor): void&lt;/p&gt;&lt;p style=&quot;margin: 0px 0px 0px 4px;&quot;&gt;+ removeStudentFromAdvisor(student: Student, advisor: Advisor): void&lt;/p&gt;&lt;p style=&quot;margin: 0px 0px 0px 4px;&quot;&gt;+ approveStudent(student: Student, advisor: Advisor): void&lt;/p&gt;&lt;p style=&quot;margin: 0px 0px 0px 4px;&quot;&gt;+ disapproveStudent(student: Student, advisor: Advisor): void&lt;br&gt;&lt;/p&gt;&lt;p style=&quot;margin:0px;margin-left:4px;&quot;&gt;&lt;br&gt;&lt;/p&gt;" style="verticalAlign=top;align=left;overflow=fill;html=1;whiteSpace=wrap;" vertex="1" parent="1">
          <mxGeometry x="840" y="400" width="560" height="370" as="geometry" />
        </mxCell>
        <mxCell id="8szuI--EkzhrG53r30mL-10" value="Extends" style="endArrow=block;endSize=16;endFill=1;html=1;rounded=0;entryX=0.5;entryY=1;entryDx=0;entryDy=0;" edge="1" parent="1" target="8szuI--EkzhrG53r30mL-2">
          <mxGeometry width="160" relative="1" as="geometry">
            <mxPoint x="400" y="360" as="sourcePoint" />
            <mxPoint x="490" y="350" as="targetPoint" />
          </mxGeometry>
        </mxCell>
        <mxCell id="8szuI--EkzhrG53r30mL-11" value="" style="endArrow=none;html=1;rounded=0;exitX=0.5;exitY=0;exitDx=0;exitDy=0;" edge="1" parent="1" source="8szuI--EkzhrG53r30mL-1">
          <mxGeometry width="50" height="50" relative="1" as="geometry">
            <mxPoint x="250" y="390" as="sourcePoint" />
            <mxPoint x="400" y="360" as="targetPoint" />
            <Array as="points">
              <mxPoint x="200" y="360" />
            </Array>
          </mxGeometry>
        </mxCell>
        <mxCell id="8szuI--EkzhrG53r30mL-12" value="" style="endArrow=none;html=1;rounded=0;exitX=0.5;exitY=0;exitDx=0;exitDy=0;" edge="1" parent="1" source="8szuI--EkzhrG53r30mL-3">
          <mxGeometry width="50" height="50" relative="1" as="geometry">
            <mxPoint x="500" y="380" as="sourcePoint" />
            <mxPoint x="400" y="360" as="targetPoint" />
            <Array as="points">
              <mxPoint x="600" y="360" />
            </Array>
          </mxGeometry>
        </mxCell>
        <mxCell id="8szuI--EkzhrG53r30mL-13" value="&lt;p style=&quot;margin:0px;margin-top:4px;text-align:center;&quot;&gt;&lt;b&gt;Course Section&lt;/b&gt;&lt;/p&gt;&lt;hr size=&quot;1&quot; style=&quot;border-style:solid;&quot;&gt;&lt;p style=&quot;margin:0px;margin-left:4px;&quot;&gt;- sectionID: ID&lt;/p&gt;&lt;p style=&quot;margin:0px;margin-left:4px;&quot;&gt;&lt;span style=&quot;background-color: initial;&quot;&gt;- allSessions: List&amp;lt;SessionTime&amp;gt;&lt;/span&gt;&lt;/p&gt;&lt;p style=&quot;margin:0px;margin-left:4px;&quot;&gt;&lt;span style=&quot;background-color: initial;&quot;&gt;- course: Course&lt;/span&gt;&lt;/p&gt;&lt;p style=&quot;margin:0px;margin-left:4px;&quot;&gt;- enrolledStudents: List&amp;lt;Student&amp;gt;&lt;/p&gt;&lt;p style=&quot;margin:0px;margin-left:4px;&quot;&gt;- capacity: int&lt;/p&gt;&lt;p style=&quot;margin:0px;margin-left:4px;&quot;&gt;+ courseRegistrationSystem: CourseRegistrationSystem&lt;br&gt;&lt;/p&gt;&lt;p style=&quot;margin:0px;margin-left:4px;&quot;&gt;&lt;br&gt;&lt;/p&gt;&lt;hr size=&quot;1&quot; style=&quot;border-style:solid;&quot;&gt;&lt;p style=&quot;margin:0px;margin-left:4px;&quot;&gt;+ getAvailableSeats(): int&lt;/p&gt;" style="verticalAlign=top;align=left;overflow=fill;html=1;whiteSpace=wrap;" vertex="1" parent="1">
          <mxGeometry x="320" y="880" width="320" height="200" as="geometry" />
        </mxCell>
        <mxCell id="8szuI--EkzhrG53r30mL-14" value="&lt;p style=&quot;margin:0px;margin-top:4px;text-align:center;&quot;&gt;&lt;b&gt;Course&lt;/b&gt;&lt;/p&gt;&lt;hr size=&quot;1&quot; style=&quot;border-style:solid;&quot;&gt;&lt;p style=&quot;margin:0px;margin-left:4px;&quot;&gt;- courseID: ID&lt;/p&gt;&lt;p style=&quot;margin:0px;margin-left:4px;&quot;&gt;- courseName: String&lt;/p&gt;&lt;p style=&quot;margin:0px;margin-left:4px;&quot;&gt;- prerequisites: List&amp;lt;Course&amp;gt;&lt;/p&gt;&lt;p style=&quot;margin:0px;margin-left:4px;&quot;&gt;+ courseRegistrationSystem: CourseRegistrationSystem&lt;br&gt;&lt;/p&gt;&lt;p style=&quot;margin:0px;margin-left:4px;&quot;&gt;&lt;br&gt;&lt;/p&gt;&lt;hr size=&quot;1&quot; style=&quot;border-style:solid;&quot;&gt;&lt;p style=&quot;margin:0px;margin-left:4px;&quot;&gt;+ addPrerequisite(course: Course): void&lt;/p&gt;&lt;p style=&quot;margin:0px;margin-left:4px;&quot;&gt;&lt;br&gt;&lt;/p&gt;" style="verticalAlign=top;align=left;overflow=fill;html=1;whiteSpace=wrap;" vertex="1" parent="1">
          <mxGeometry x="1080" y="880" width="320" height="200" as="geometry" />
        </mxCell>
        <mxCell id="8szuI--EkzhrG53r30mL-15" value="&lt;p style=&quot;margin:0px;margin-top:4px;text-align:center;&quot;&gt;&lt;b&gt;Session Time&lt;/b&gt;&lt;/p&gt;&lt;hr size=&quot;1&quot; style=&quot;border-style:solid;&quot;&gt;&lt;p style=&quot;margin:0px;margin-left:4px;&quot;&gt;&lt;span style=&quot;background-color: initial;&quot;&gt;- startDateTime: DateTime&amp;nbsp;&lt;/span&gt;&lt;/p&gt;&lt;p style=&quot;margin:0px;margin-left:4px;&quot;&gt;&lt;span style=&quot;background-color: initial;&quot;&gt;- endDateTime: DateTime&lt;/span&gt;&lt;span style=&quot;background-color: initial;&quot;&gt;&amp;nbsp;&lt;/span&gt;&lt;/p&gt;&lt;p style=&quot;margin:0px;margin-left:4px;&quot;&gt;- classroom: String&lt;/p&gt;&lt;hr size=&quot;1&quot; style=&quot;border-style:solid;&quot;&gt;&lt;p style=&quot;margin:0px;margin-left:4px;&quot;&gt;+&amp;nbsp;isValidSession()&lt;/p&gt;" style="verticalAlign=top;align=left;overflow=fill;html=1;whiteSpace=wrap;" vertex="1" parent="1">
          <mxGeometry x="40" y="880" width="160" height="120" as="geometry" />
        </mxCell>
        <mxCell id="8szuI--EkzhrG53r30mL-16" value="" style="endArrow=diamondThin;endFill=1;endSize=24;html=1;rounded=0;exitX=0.997;exitY=0.12;exitDx=0;exitDy=0;entryX=0.006;entryY=0.12;entryDx=0;entryDy=0;exitPerimeter=0;entryPerimeter=0;" edge="1" parent="1" source="8szuI--EkzhrG53r30mL-13" target="8szuI--EkzhrG53r30mL-14">
          <mxGeometry width="160" relative="1" as="geometry">
            <mxPoint x="660" y="1140" as="sourcePoint" />
            <mxPoint x="820" y="1140" as="targetPoint" />
          </mxGeometry>
        </mxCell>
        <mxCell id="8szuI--EkzhrG53r30mL-17" value="&lt;p style=&quot;margin:0px;margin-top:4px;text-align:center;&quot;&gt;&lt;b&gt;ID&lt;/b&gt;&lt;/p&gt;&lt;hr size=&quot;1&quot; style=&quot;border-style:solid;&quot;&gt;&lt;p style=&quot;margin:0px;margin-left:4px;&quot;&gt;- id: String&lt;/p&gt;&lt;hr size=&quot;1&quot; style=&quot;border-style:solid;&quot;&gt;&lt;p style=&quot;margin:0px;margin-left:4px;&quot;&gt;+&amp;nbsp;isValidIDFormat()&lt;/p&gt;" style="verticalAlign=top;align=left;overflow=fill;html=1;whiteSpace=wrap;" vertex="1" parent="1">
          <mxGeometry x="720" y="40" width="140" height="100" as="geometry" />
        </mxCell>
        <mxCell id="8szuI--EkzhrG53r30mL-18" value="&lt;p style=&quot;margin:0px;margin-top:4px;text-align:center;&quot;&gt;&lt;b&gt;Password&lt;/b&gt;&lt;/p&gt;&lt;hr size=&quot;1&quot; style=&quot;border-style:solid;&quot;&gt;&lt;p style=&quot;margin:0px;margin-left:4px;&quot;&gt;- password: String&lt;/p&gt;&lt;hr size=&quot;1&quot; style=&quot;border-style:solid;&quot;&gt;&lt;p style=&quot;margin:0px;margin-left:4px;&quot;&gt;+&amp;nbsp;isSecurePassword()&lt;/p&gt;" style="verticalAlign=top;align=left;overflow=fill;html=1;whiteSpace=wrap;" vertex="1" parent="1">
          <mxGeometry x="720" y="180" width="140" height="100" as="geometry" />
        </mxCell>
        <mxCell id="8szuI--EkzhrG53r30mL-19" value="" style="endArrow=open;endFill=1;endSize=12;html=1;rounded=0;exitX=0.996;exitY=0.075;exitDx=0;exitDy=0;exitPerimeter=0;entryX=0;entryY=0.1;entryDx=0;entryDy=0;entryPerimeter=0;" edge="1" parent="1" source="8szuI--EkzhrG53r30mL-1" target="8szuI--EkzhrG53r30mL-3">
          <mxGeometry width="160" relative="1" as="geometry">
            <mxPoint x="340" y="470" as="sourcePoint" />
            <mxPoint x="500" y="470" as="targetPoint" />
          </mxGeometry>
        </mxCell>
        <mxCell id="8szuI--EkzhrG53r30mL-20" value="&lt;font style=&quot;font-size: 14px;&quot;&gt;0..1&lt;/font&gt;" style="text;html=1;align=center;verticalAlign=middle;whiteSpace=wrap;rounded=0;fillColor=#f5f5f5;fontColor=#333333;strokeColor=#666666;" vertex="1" parent="1">
          <mxGeometry x="440" y="440" width="30" height="30" as="geometry" />
        </mxCell>
        <mxCell id="8szuI--EkzhrG53r30mL-21" value="&lt;font style=&quot;font-size: 14px;&quot;&gt;1&lt;/font&gt;" style="text;html=1;align=center;verticalAlign=middle;whiteSpace=wrap;rounded=0;fillColor=#f5f5f5;fontColor=#333333;strokeColor=#666666;" vertex="1" parent="1">
          <mxGeometry x="1040" y="920" width="30" height="30" as="geometry" />
        </mxCell>
        <mxCell id="8szuI--EkzhrG53r30mL-29" value="&lt;font style=&quot;font-size: 15px;&quot;&gt;*&lt;/font&gt;" style="text;html=1;align=center;verticalAlign=bottom;whiteSpace=wrap;rounded=0;fillColor=#f5f5f5;fontColor=#333333;strokeColor=#666666;" vertex="1" parent="1">
          <mxGeometry x="330" y="440" width="30" height="30" as="geometry" />
        </mxCell>
        <mxCell id="8szuI--EkzhrG53r30mL-30" value="&lt;font style=&quot;font-size: 15px;&quot;&gt;*&lt;/font&gt;" style="text;html=1;align=center;verticalAlign=bottom;whiteSpace=wrap;rounded=0;fillColor=#f5f5f5;fontColor=#333333;strokeColor=#666666;" vertex="1" parent="1">
          <mxGeometry x="650" y="920" width="30" height="30" as="geometry" />
        </mxCell>
        <mxCell id="8szuI--EkzhrG53r30mL-31" value="" style="endArrow=open;endFill=1;endSize=12;html=1;rounded=0;entryX=0.944;entryY=0.009;entryDx=0;entryDy=0;curved=1;exitX=0;exitY=0;exitDx=0;exitDy=0;entryPerimeter=0;" edge="1" parent="1" source="8szuI--EkzhrG53r30mL-36" target="8szuI--EkzhrG53r30mL-33">
          <mxGeometry width="160" relative="1" as="geometry">
            <mxPoint x="600" y="65" as="sourcePoint" />
            <mxPoint x="718" y="190" as="targetPoint" />
            <Array as="points">
              <mxPoint x="660" y="190" />
            </Array>
          </mxGeometry>
        </mxCell>
        <mxCell id="8szuI--EkzhrG53r30mL-32" value="" style="endArrow=open;endFill=1;endSize=12;html=1;rounded=0;entryX=1;entryY=0;entryDx=0;entryDy=0;curved=1;exitX=0;exitY=0;exitDx=0;exitDy=0;" edge="1" parent="1" source="8szuI--EkzhrG53r30mL-37" target="8szuI--EkzhrG53r30mL-34">
          <mxGeometry width="160" relative="1" as="geometry">
            <mxPoint x="600" y="65" as="sourcePoint" />
            <mxPoint x="690" y="100" as="targetPoint" />
            <Array as="points">
              <mxPoint x="660" y="20" />
            </Array>
          </mxGeometry>
        </mxCell>
        <mxCell id="8szuI--EkzhrG53r30mL-33" value="&lt;font style=&quot;font-size: 14px;&quot;&gt;1&lt;/font&gt;" style="text;html=1;align=center;verticalAlign=middle;whiteSpace=wrap;rounded=0;fillColor=#f5f5f5;fontColor=#333333;strokeColor=#666666;" vertex="1" parent="1">
          <mxGeometry x="690" y="250" width="30" height="30" as="geometry" />
        </mxCell>
        <mxCell id="8szuI--EkzhrG53r30mL-34" value="&lt;font style=&quot;font-size: 14px;&quot;&gt;1&lt;/font&gt;" style="text;html=1;align=center;verticalAlign=middle;whiteSpace=wrap;rounded=0;fillColor=#f5f5f5;fontColor=#333333;strokeColor=#666666;" vertex="1" parent="1">
          <mxGeometry x="690" y="80" width="30" height="30" as="geometry" />
        </mxCell>
        <mxCell id="8szuI--EkzhrG53r30mL-36" value="&lt;font style=&quot;font-size: 15px;&quot;&gt;*&lt;/font&gt;" style="text;html=1;align=center;verticalAlign=bottom;whiteSpace=wrap;rounded=0;fillColor=#f5f5f5;fontColor=#333333;strokeColor=#666666;" vertex="1" parent="1">
          <mxGeometry x="600" y="250" width="30" height="30" as="geometry" />
        </mxCell>
        <mxCell id="8szuI--EkzhrG53r30mL-37" value="&lt;font style=&quot;font-size: 15px;&quot;&gt;*&lt;/font&gt;" style="text;html=1;align=center;verticalAlign=bottom;whiteSpace=wrap;rounded=0;fillColor=#f5f5f5;fontColor=#333333;strokeColor=#666666;" vertex="1" parent="1">
          <mxGeometry x="600" y="80" width="30" height="30" as="geometry" />
        </mxCell>
        <mxCell id="8szuI--EkzhrG53r30mL-38" value="" style="endArrow=open;endFill=1;endSize=12;html=1;rounded=0;entryX=0;entryY=0;entryDx=0;entryDy=0;exitX=1;exitY=0;exitDx=0;exitDy=0;curved=1;" edge="1" parent="1" source="8szuI--EkzhrG53r30mL-39" target="8szuI--EkzhrG53r30mL-40">
          <mxGeometry width="160" relative="1" as="geometry">
            <mxPoint x="290" y="810" as="sourcePoint" />
            <mxPoint x="220" y="830" as="targetPoint" />
            <Array as="points">
              <mxPoint x="260" y="870" />
            </Array>
          </mxGeometry>
        </mxCell>
        <mxCell id="8szuI--EkzhrG53r30mL-39" value="&lt;font style=&quot;font-size: 14px;&quot;&gt;1&lt;/font&gt;" style="text;html=1;align=center;verticalAlign=middle;whiteSpace=wrap;rounded=0;fillColor=#f5f5f5;fontColor=#333333;strokeColor=#666666;" vertex="1" parent="1">
          <mxGeometry x="290" y="920" width="30" height="30" as="geometry" />
        </mxCell>
        <mxCell id="8szuI--EkzhrG53r30mL-40" value="&lt;font style=&quot;font-size: 15px;&quot;&gt;*&lt;/font&gt;" style="text;html=1;align=center;verticalAlign=bottom;whiteSpace=wrap;rounded=0;fillColor=#f5f5f5;fontColor=#333333;strokeColor=#666666;" vertex="1" parent="1">
          <mxGeometry x="200" y="920" width="30" height="30" as="geometry" />
        </mxCell>
        <mxCell id="8szuI--EkzhrG53r30mL-44" value="" style="endArrow=open;endFill=1;endSize=12;html=1;rounded=0;exitX=1;exitY=1;exitDx=0;exitDy=0;entryX=-0.003;entryY=0.858;entryDx=0;entryDy=0;entryPerimeter=0;" edge="1" parent="1" source="8szuI--EkzhrG53r30mL-1" target="8szuI--EkzhrG53r30mL-5">
          <mxGeometry width="160" relative="1" as="geometry">
            <mxPoint x="350" y="720" as="sourcePoint" />
            <mxPoint x="510" y="720" as="targetPoint" />
          </mxGeometry>
        </mxCell>
        <mxCell id="8szuI--EkzhrG53r30mL-45" value="" style="endArrow=open;endFill=1;endSize=12;html=1;rounded=0;exitX=1;exitY=1;exitDx=0;exitDy=0;entryX=-0.005;entryY=0.651;entryDx=0;entryDy=0;entryPerimeter=0;" edge="1" parent="1" source="8szuI--EkzhrG53r30mL-3" target="8szuI--EkzhrG53r30mL-5">
          <mxGeometry width="160" relative="1" as="geometry">
            <mxPoint x="690" y="670" as="sourcePoint" />
            <mxPoint x="850" y="670" as="targetPoint" />
          </mxGeometry>
        </mxCell>
        <mxCell id="8szuI--EkzhrG53r30mL-46" value="" style="endArrow=open;endFill=1;endSize=12;html=1;rounded=0;entryX=0.073;entryY=1.007;entryDx=0;entryDy=0;entryPerimeter=0;" edge="1" parent="1" target="8szuI--EkzhrG53r30mL-5">
          <mxGeometry width="160" relative="1" as="geometry">
            <mxPoint x="640" y="880" as="sourcePoint" />
            <mxPoint x="800" y="880" as="targetPoint" />
            <Array as="points">
              <mxPoint x="881" y="880" />
            </Array>
          </mxGeometry>
        </mxCell>
        <mxCell id="8szuI--EkzhrG53r30mL-47" value="" style="endArrow=open;endFill=1;endSize=12;html=1;rounded=0;entryX=0.286;entryY=1;entryDx=0;entryDy=0;entryPerimeter=0;exitX=0;exitY=0;exitDx=0;exitDy=0;" edge="1" parent="1" source="8szuI--EkzhrG53r30mL-14" target="8szuI--EkzhrG53r30mL-5">
          <mxGeometry width="160" relative="1" as="geometry">
            <mxPoint x="970" y="850" as="sourcePoint" />
            <mxPoint x="1130" y="850" as="targetPoint" />
            <Array as="points">
              <mxPoint x="1000" y="880" />
            </Array>
          </mxGeometry>
        </mxCell>
        <mxCell id="8szuI--EkzhrG53r30mL-48" value="&lt;font style=&quot;font-size: 14px;&quot;&gt;1&lt;/font&gt;" style="text;html=1;align=center;verticalAlign=middle;whiteSpace=wrap;rounded=0;fillColor=#f5f5f5;fontColor=#333333;strokeColor=#666666;" vertex="1" parent="1">
          <mxGeometry x="810" y="600" width="30" height="30" as="geometry" />
        </mxCell>
        <mxCell id="8szuI--EkzhrG53r30mL-49" value="&lt;font style=&quot;font-size: 14px;&quot;&gt;1&lt;/font&gt;" style="text;html=1;align=center;verticalAlign=middle;whiteSpace=wrap;rounded=0;fillColor=#f5f5f5;fontColor=#333333;strokeColor=#666666;" vertex="1" parent="1">
          <mxGeometry x="810" y="730" width="30" height="30" as="geometry" />
        </mxCell>
        <mxCell id="8szuI--EkzhrG53r30mL-50" value="&lt;font style=&quot;font-size: 14px;&quot;&gt;1&lt;/font&gt;" style="text;html=1;align=center;verticalAlign=middle;whiteSpace=wrap;rounded=0;fillColor=#f5f5f5;fontColor=#333333;strokeColor=#666666;" vertex="1" parent="1">
          <mxGeometry x="890" y="770" width="30" height="30" as="geometry" />
        </mxCell>
        <mxCell id="8szuI--EkzhrG53r30mL-51" value="&lt;font style=&quot;font-size: 14px;&quot;&gt;1&lt;/font&gt;" style="text;html=1;align=center;verticalAlign=middle;whiteSpace=wrap;rounded=0;fillColor=#f5f5f5;fontColor=#333333;strokeColor=#666666;" vertex="1" parent="1">
          <mxGeometry x="1020" y="770" width="30" height="30" as="geometry" />
        </mxCell>
        <mxCell id="8szuI--EkzhrG53r30mL-53" value="&lt;font style=&quot;font-size: 15px;&quot;&gt;*&lt;/font&gt;" style="text;html=1;align=center;verticalAlign=bottom;whiteSpace=wrap;rounded=0;fillColor=#f5f5f5;fontColor=#333333;strokeColor=#666666;" vertex="1" parent="1">
          <mxGeometry x="730" y="600" width="30" height="30" as="geometry" />
        </mxCell>
        <mxCell id="8szuI--EkzhrG53r30mL-54" value="&lt;font style=&quot;font-size: 15px;&quot;&gt;*&lt;/font&gt;" style="text;html=1;align=center;verticalAlign=bottom;whiteSpace=wrap;rounded=0;fillColor=#f5f5f5;fontColor=#333333;strokeColor=#666666;" vertex="1" parent="1">
          <mxGeometry x="330" y="680" width="30" height="30" as="geometry" />
        </mxCell>
        <mxCell id="8szuI--EkzhrG53r30mL-55" value="&lt;font style=&quot;font-size: 15px;&quot;&gt;*&lt;/font&gt;" style="text;html=1;align=center;verticalAlign=bottom;whiteSpace=wrap;rounded=0;fillColor=#f5f5f5;fontColor=#333333;strokeColor=#666666;" vertex="1" parent="1">
          <mxGeometry x="650" y="840" width="30" height="30" as="geometry" />
        </mxCell>
        <mxCell id="8szuI--EkzhrG53r30mL-56" value="&lt;font style=&quot;font-size: 15px;&quot;&gt;*&lt;/font&gt;" style="text;html=1;align=center;verticalAlign=bottom;whiteSpace=wrap;rounded=0;fillColor=#f5f5f5;fontColor=#333333;strokeColor=#666666;" vertex="1" parent="1">
          <mxGeometry x="1050" y="840" width="30" height="30" as="geometry" />
        </mxCell>
        <mxCell id="8szuI--EkzhrG53r30mL-58" value="The lists (students, advisors, courses, and courseSections)&lt;br/&gt;should be initialized as empty in the constructor." style="rounded=1;whiteSpace=wrap;html=1;" vertex="1" parent="1">
          <mxGeometry x="1220" y="310" width="180" height="70" as="geometry" />
        </mxCell>
        <mxCell id="8szuI--EkzhrG53r30mL-59" value="" style="endArrow=none;dashed=1;html=1;dashPattern=1 3;strokeWidth=2;rounded=0;exitX=0.5;exitY=0;exitDx=0;exitDy=0;entryX=0;entryY=0.5;entryDx=0;entryDy=0;curved=1;" edge="1" parent="1" source="8szuI--EkzhrG53r30mL-5" target="8szuI--EkzhrG53r30mL-58">
          <mxGeometry width="50" height="50" relative="1" as="geometry">
            <mxPoint x="1120" y="380" as="sourcePoint" />
            <mxPoint x="1170" y="330" as="targetPoint" />
            <Array as="points">
              <mxPoint x="1140" y="340" />
            </Array>
          </mxGeometry>
        </mxCell>
        <mxCell id="8szuI--EkzhrG53r30mL-61" value="&#39;viewCourses()&#39;: Uses the &#39;enrolledCourse&#39; list to get and return the corresponding &#39;Course&#39; objects associated with each &#39;CourseSection&#39;." style="rounded=1;whiteSpace=wrap;html=1;" vertex="1" parent="1">
          <mxGeometry x="10" y="240" width="170" height="90" as="geometry" />
        </mxCell>
        <mxCell id="8szuI--EkzhrG53r30mL-62" value="" style="endArrow=none;dashed=1;html=1;dashPattern=1 3;strokeWidth=2;rounded=0;entryX=0.412;entryY=1.033;entryDx=0;entryDy=0;curved=1;entryPerimeter=0;" edge="1" parent="1" target="8szuI--EkzhrG53r30mL-61">
          <mxGeometry width="50" height="50" relative="1" as="geometry">
            <mxPoint x="80" y="410" as="sourcePoint" />
            <mxPoint x="70" y="370" as="targetPoint" />
            <Array as="points">
              <mxPoint x="50" y="370" />
            </Array>
          </mxGeometry>
        </mxCell>
        <mxCell id="8szuI--EkzhrG53r30mL-63" value="The methods &#39;enrollCourse(courseSection: CourseSection)&#39; and &#39;dropCourse(courseSection: CourseSection)&#39; in the Student class are responsible for managing the &#39;enrolledCourses&#39; list." style="rounded=1;whiteSpace=wrap;html=1;" vertex="1" parent="1">
          <mxGeometry x="1420" y="640" width="170" height="130" as="geometry" />
        </mxCell>
        <mxCell id="8szuI--EkzhrG53r30mL-64" value="" style="endArrow=none;dashed=1;html=1;dashPattern=1 3;strokeWidth=2;rounded=0;exitX=0.5;exitY=0;exitDx=0;exitDy=0;entryX=0.996;entryY=0.422;entryDx=0;entryDy=0;entryPerimeter=0;curved=1;" edge="1" parent="1" source="8szuI--EkzhrG53r30mL-63" target="8szuI--EkzhrG53r30mL-5">
          <mxGeometry width="50" height="50" relative="1" as="geometry">
            <mxPoint x="1510" y="630" as="sourcePoint" />
            <mxPoint x="1560" y="580" as="targetPoint" />
            <Array as="points">
              <mxPoint x="1500" y="560" />
            </Array>
          </mxGeometry>
        </mxCell>
        <mxCell id="8szuI--EkzhrG53r30mL-65" value="The same applies to the &#39;assignedStudents&#39; and &#39;awaitingStudents&#39; lists in the Advisor class." style="rounded=1;whiteSpace=wrap;html=1;" vertex="1" parent="1">
          <mxGeometry x="1460" y="820" width="130" height="90" as="geometry" />
        </mxCell>
        <mxCell id="8szuI--EkzhrG53r30mL-66" value="" style="endArrow=none;dashed=1;html=1;dashPattern=1 3;strokeWidth=2;rounded=0;entryX=0.75;entryY=1;entryDx=0;entryDy=0;exitX=0.162;exitY=0;exitDx=0;exitDy=0;curved=1;exitPerimeter=0;" edge="1" parent="1" source="8szuI--EkzhrG53r30mL-65" target="8szuI--EkzhrG53r30mL-63">
          <mxGeometry width="50" height="50" relative="1" as="geometry">
            <mxPoint x="1480" y="840" as="sourcePoint" />
            <mxPoint x="1530" y="790" as="targetPoint" />
            <Array as="points">
              <mxPoint x="1530" y="810" />
            </Array>
          </mxGeometry>
        </mxCell>
      </root>
    </mxGraphModel>
  </diagram>
</mxfile>
